# xmcd
#
# Track frame offsets:
#	150
#	11315
#	27807
#	40785
#	52622
#	66167
#	76852
#	89255
#	101570
#	111295
#	121672
#	133607
#
# Disc length: 1954 seconds
#
# Revision: 2
# Processed by: cddbd v1.5.1PL0 Copyright (c) Steve Scherf et al.
# Submitted via: audiograbber 1.83.01
#
DISCID=8307a00c
DTITLE=Memphis Slim - Lonesome
DYEAR=1994
DGENRE=Blues
TTITLE0=Lonesome
TTITLE1=Cold Blooded Woman
TTITLE2=One Man's Mad
TTITLE3=Good Time Roll Creole
TTITLE4=What Is Mare-back
TTITLE5=Pigalle Love
TTITLE6=Four Walls
TTITLE7=It's Been Too Long
TTITLE8=Big Bertha
TTITLE9=I'm Lost Without You
TTITLE10=I'll Just Keep Singing The Blues
TTITLE11=True Love
EXTD=
EXTT0=
EXTT1=
EXTT2=
EXTT3=
EXTT4=
EXTT5=
EXTT6=
EXTT7=
EXTT8=
EXTT9=
EXTT10=
EXTT11=
PLAYORDER=
